<svg id="giusti" 
  xmlns="http://www.w3.org/2000/svg" viewBox="0 0 346.26 338">
  <defs>
    <style>.cls-1{fill:#a60000;}</style>
  </defs>
  <title>giusti</title>
  <path class="cls-1" d="M513.92,43.49c61.27,11.91,130.33,74.46,130,166.78C643.54,302.76,571.83,375,487.51,381.48V210.13h26.64V348.41c32.25-10.83,57.33-28.05,75.41-54.43C645,213.17,612.83,109.82,521.45,73c-3.28-1.32-6.53-6.11-7.21-9.77C513.07,57,513.92,50.29,513.92,43.49Z" transform="translate(-297.63 -43.49)"/>
  <path class="cls-1" d="M427.48,347.73V210.28h25.85V380c-60.94,1-145.65-57.56-154.8-152C288.6,125.7,363.67,55,426.88,43.73a8.65,8.65,0,0,1,.65,2.25c0.07,7.47,2.4,16.13-.62,22.05-2.48,4.86-11.31,6.54-17.38,9.52-43.67,21.38-72,55.51-81.61,103.19C312.52,256.84,358.47,327.6,427.48,347.73Z" transform="translate(-297.63 -43.49)"/>
</svg>