<svg id="Layer_1" data-name="Layer 1" xmlns="http://www.w3.org/2000/svg" viewBox="0 0 586.69 502"><defs><style>.cls-1{fill:#353535;}.cls-2{fill:#a3a3a3;}.cls-3{fill:#fdfdfd;}</style></defs><title>device</title><path class="cls-1" d="M442.59,277.75c19.28,0.21,38.57.58,57.85,0.59q120.61,0.11,241.21.08c26,0,38.54,11.81,38.69,37.47q0.51,86.83,0,173.67c-0.11,23.16-13.35,35.15-38.19,35.17q-151.62.15-303.24,0c-8.34,0-32.74.07-36.88,0-30.22-.23-60.44,0-90.66-0.17-23.32-.12-35.13-12.16-35.42-35.7-0.18-14.18-.31-28.36-0.46-42.55q0.16-64.13.32-128.26c0.05-28.4,11.43-39.59,40.26-39.7q54.46-.22,108.92-0.57ZM725.83,486.9c0-59.31-.28-118.62.25-177.92,0.09-10.31-2.45-13-12.85-13q-171,.6-342.05,0c-10.74,0-13,3.33-12.92,13.31q0.62,91.72,0,183.44c-0.1,11.07,2.34,14.56,14.07,14.51,114-.48,228-0.27,342.06-0.33C718.84,506.94,725.83,493.15,725.83,486.9Zm33.05-84.24c0-8.2,0-16.41,0-24.61,0-3.39-.93-6.74-4.9-6.91s-5.14,3-5.14,6.52q0,23.93,0,47.86c0,3.43.72,6.85,4.8,6.84,5,0,5.25-4,5.24-7.82Q758.84,413.6,758.88,402.66Z" transform="translate(-193.89 -27.75)"/><path class="cls-2" d="M442.59,277.75l-17.6.07c0-59.77-.53-119.54.18-179.3,0.16-13.29-4.29-16-16.47-15.94q-90.34.79-180.68,0c-12-.12-15.45,2.81-15.39,15.16,0.52,94.25.25,188.5,0.24,282.76,0,18.85.22,37.7,0,56.55-0.09,6.56,1.2,10.52,8.93,10.28,17.89-.55,35.8-0.66,53.7-0.94,0.15,14.18.28,28.36,0.46,42.55,0.3,23.54,12.11,35.58,35.42,35.7,30.22,0.15,60.44-.06,90.66.17,4.15,0,3.65,4.89-.73,4.9q-85.49.18-171,0A36.37,36.37,0,0,1,194,493.37q-0.25-214.74.06-429.49c0-21,13.07-35.39,34-35.63q90.31-1,180.63,0a34,34,0,0,1,33.6,34Q442.56,170,442.59,277.75ZM319,49.84v0.09c-8.2,0-16.39,0-24.59,0-3.41,0-6.51.84-6.44,5.17,0.06,3.39,2.45,4.81,5.4,4.83,16.39,0.12,32.78.11,49.17,0.1,3.94,0,5.85-2.19,5.58-6-0.26-3.62-3.08-4.13-5.91-4.15C334.45,49.79,326.71,49.84,319,49.84Z" transform="translate(-193.89 -27.75)"/><path class="cls-1" d="M656.49,201.63c-12.69,18.8-25.47,37.29-37.72,56.12-4.52,7-7.19,6.4-11.46-.13-12.29-18.79-25-37.3-39.25-58.39,7.13,0,12.38-.68,17.38.13,13.39,2.16,14.71-4.56,13.8-15.66a124,124,0,0,0-117-113.33c-22-1.22-9.78-16.1-11.84-24.78-2.73-11.52,6.54-9.23,13.17-8.86,82.49,4.68,146.25,69.4,149.1,151.84,0.29,8.29,2.26,11.66,10.86,10.86C647.58,199.06,652.46,197.23,656.49,201.63Z" transform="translate(-193.89 -27.75)"/><path class="cls-3" d="M714.35,506.94c-114,.06-228-0.14-342.06.33-11.74,0-14.17-3.44-14.07-14.51q0.8-91.71,0-183.44c-0.07-10,2.18-13.35,12.92-13.31q171,0.61,342.05,0c10.4,0,12.94,2.67,12.85,13-0.54,59.3-.28,118.61-0.25,177.92C726.09,502.54,718.84,506.94,714.35,506.94Z" transform="translate(-193.89 -27.75)"/><path class="cls-3" d="M275.48,446.34c-17.9.29-35.81,0.39-53.7,0.94-7.73.24-9-3.72-8.93-10.28,0.25-18.85,0-37.7,0-56.55,0-94.25.28-188.51-.24-282.76C212.56,85.36,216,82.42,228,82.55q90.33,0.93,180.68,0c12.18-.11,16.63,2.65,16.47,15.94-0.71,59.76-.23,119.53-0.18,179.3q-54.46.29-108.92,0.57c-28.84.11-40.21,11.31-40.26,39.7Q275.68,382.21,275.48,446.34Z" transform="translate(-193.89 -27.75)"/><path class="cls-3" d="M758.88,402.66c0,7.29,0,14.59,0,21.88,0,3.83-.29,7.82-5.24,7.82-4.08,0-4.8-3.41-4.8-6.84q0-23.93,0-47.86c0-3.55,1.06-6.7,5.14-6.52s4.88,3.53,4.9,6.91C758.93,386.26,758.88,394.46,758.88,402.66Z" transform="translate(-193.89 -27.75)"/><path class="cls-3" d="M319,49.84c7.74,0,15.48-.05,23.22,0,2.83,0,5.65.53,5.91,4.15,0.27,3.85-1.64,6-5.58,6-16.39,0-32.78,0-49.17-.1-3,0-5.35-1.44-5.4-4.83-0.07-4.33,3-5.14,6.44-5.17,8.19-.07,16.39,0,24.59,0V49.84Z" transform="translate(-193.89 -27.75)"/><circle class="cls-3" cx="124.35" cy="374.84" r="23.17"/></svg>